<?xml version="1.0" encoding="utf-8"?>
<!-- Generator: Adobe Illustrator 18.1.1, SVG Export Plug-In . SVG Version: 6.00 Build 0)  -->
<svg version="1.1" id="Layer_1" xmlns="http://www.w3.org/2000/svg" xmlns:xlink="http://www.w3.org/1999/xlink" x="0px" y="0px"
	 viewBox="2140.3 -676.3 221.9 180" enable-background="new 2140.3 -676.3 221.9 180" xml:space="preserve">
<g transform="translate(0.000000,3300.000000) scale(0.100000,-0.100000)">
	<path fill="#946600" d="M22518.3,39754.3c-1.5-2.5-38.9-101.1-38.5-101.5c0.2-0.2,21.7-0.3,47.8-0.2l47.3,0.3l-16.9,41.5
		c-9.3,22.9-18.8,45.8-20.9,51.1l-4,9.5h-7.2C22521.9,39755,22518.5,39754.7,22518.3,39754.3z M22535.1,39717.8l8.7-22.9l-17.1-0.3
		c-9.5-0.1-17.4,0-17.6,0.2c-0.3,0.3,2.8,9.6,6.8,20.8c9.5,26.1,9.5,26.1,10,25.5C22526.2,39740.8,22530.3,39730.4,22535.1,39717.8z
		"/>
	<path fill="#946600" d="M22520.1,39634.2c-1.6-0.9-5.4-3.5-8.4-5.9l-5.5-4.3l-9.5,4.6c-8.2,4-10.5,4.7-17.1,5.1
		c-6.6,0.4-8.1,0.1-12.4-2.1c-4.6-2.3-12.8-10.1-18.3-17.4l-2.7-3.6l-10,3.2c-53,17.3-109,9.9-151.1-19.8
		c-11.9-8.4-29-25.4-37.5-37.3c-7.8-10.9-17.9-31-22-43.7c-5.5-16.8-7.3-29.1-7.3-48.2c0-19.6,1.5-30,6.7-45.7
		c12.9-38.5,42.5-69.6,78.6-82.7c20.1-7.2,41.7-9,69.3-5.4c19.8,2.4,24.3,2.1,27.8-2c2.9-3.5,4.9-9.2,4.1-12
		c-0.3-1.2-5-7.6-10.3-14.4c-5.4-6.7-11.2-15-13-18.5c-3-6.1-3.2-6.8-3.2-17.2c0-10.5,0.1-11.1,2.9-15.6c1.8-2.9,4.8-6,7.3-7.5
		c8.4-5.2,12.9-5.7,48.9-5.7h32.8l0.7-117.9c0.3-65,1.3-234,2.1-375.9c0.8-141.8,1.7-292.8,2-335.6l0.6-77.8l-14.4-0.7
		c-7.8-0.4-35.5-0.6-61.3-0.4c-52.3,0.4-51,0.6-58-6.3c-5.5-5.3-6.1-9.5-5.5-35.3c0.3-12.4,1-25.2,1.5-28.4
		c2.8-16.2,10.5-19.9,40.6-20h13.9l-0.1-10.9c-0.1-14,1.7-20.8,6.9-26.1c4.9-4.9,10.4-6.3,21.6-5.8l8.8,0.5v-22.1v-22.1h-10.5
		c-11.1,0-14.5-1-19.6-5.8c-5.7-5.1-8.6-16.6-7.5-29.5l0.7-7.9l-5.8-1.1c-3.1-0.6-12.5-1.8-20.8-2.6c-16.2-1.6-22-2.7-24.5-5.1
		c-3-2.6-4.3-15.6-4.1-43.3c0-15.7,0.5-27,1.2-28.5c1.4-3.6,6-6.3,14-8.1c5.5-1.2,15.9-1.5,63.5-1.5h56.9l4.1-10.1
		c8.7-21,18.5-33.2,30.3-37.9c5.2-2.1,7.2-2.2,22.8-2.3c19.9,0,26.8,1.6,36.9,8.3c12.3,8.3,17.4,19.1,18.8,40.5
		c0.6,8.7,0.6,82.8-0.1,203.7c-0.5,104.5-1.2,244.5-1.6,311.1l-0.6,121.1l21.5,22c14.2,14.5,21.8,21.7,22.5,21
		c0.5-0.5,25.5-40,55.4-87.9c30-47.8,56.8-90.5,59.8-95l5.2-8l50.5,0.2l50.6,0.3l0.3,13.3l0.3,13.2l-25.7,4.7
		c-14.2,2.5-25.8,5-26,5.3c-0.1,0.4-28.4,44.6-62.8,98.4c-34.4,53.7-63,98.7-63.6,99.8c-1,2,2.7,6,41.8,46.1
		c23.6,24.3,43.8,44.3,44.8,44.5c1.1,0.3,16.5,2.7,34.2,5.4c17.8,2.6,33.2,5.1,34.5,5.4c2.2,0.5,2.2,0.8,2.2,14.6v14.2h-89.4h-89.5
		l0.3-14.4l0.3-14.3l27.6-7c15.1-3.8,27.7-7.2,28-7.4c0.2-0.3-22.1-24-49.6-52.7c-27.5-28.7-55.3-57.9-61.8-64.8l-11.8-12.4
		l-0.6,126.8c-0.4,69.7-0.7,191.1-0.7,269.7v142.9l35-0.2c29-0.1,35.7,0.1,39.6,1.4c10.4,3.3,16.2,9.9,18.9,21.1
		c1.9,7.7,1.8,20.2-0.3,26.1c-2.3,7-9.7,13.9-20,18.9l-8.4,4l1.5,5.6c2.9,11.1,6.9,16.2,13.8,17.4c2,0.3,10.5-0.3,18.8-1.5
		c52.7-6.8,89.8,5.6,121.3,40.9c17.3,19.2,29.5,44.5,33.6,69.3c2.1,13.2,1.5,37.2-1.5,50.9c-11.1,52-40.5,91.4-84.6,113.3
		c-23.3,11.6-42,16.4-67.9,17.3c-22.5,0.8-38.2-1.3-61.4-8.2l-12.1-3.6l-4,4.9c-6.3,7.5-12.4,13.1-17.6,15.7
		c-4.1,2.1-5.9,2.3-11.9,2.1c-6.2-0.3-8.3-1-16.1-4.9l-9-4.6l-5.8,3.9C22532.6,39635.7,22526.1,39637.4,22520.1,39634.2z
		 M22540.1,39593.8c6.7-8.7,12.2-16.1,12.2-16.6c0-1.7-25.2-29.4-25.9-28.6c-10.5,11.4-24.4,27.9-24.4,28.7
		c0,1.2,24.3,32.1,25.2,32.1C22527.6,39609.5,22533.4,39602.4,22540.1,39593.8z M22396,39598.7c25.4-2.4,50.3-11.7,65.2-24.5
		l4.4-3.8l-14.3-35.6c-7.9-19.6-14.7-35.7-14.9-35.7s-3.6,2.4-7.3,5.5c-14.1,11.2-27.7,17.6-44.6,20.5c-16.5,2.9-35.7-0.2-51-8.2
		c-10.5-5.6-23.4-18.9-28.7-29.5c-7.6-15.5-10.5-33.7-7.5-47.9c4.2-20.1,20.7-38.6,40.9-45.7c10.2-3.6,24.4-3.5,35.2,0.2
		c18.2,6.2,30.2,19.1,34.4,36.9c5,21-4.8,41.9-23.4,50.7c-6.9,3.3-15.5,4.5-20.2,2.9c-4-1.5-16.4-8.9-16.4-9.9
		c0-0.4,2.6-3.2,5.9-6.2c4.2-3.9,6.9-5.7,9.6-6.1c8.6-1.5,13.5-3.4,16.4-6.5c4-4.2,5.7-9.5,5-16.4c-0.9-10-6.6-17.9-16.2-22.3
		c-4.5-2.1-6.3-2.3-12.7-2c-21,1.2-35.3,17.1-35.3,39.2c0,21.6,17,41.8,39.2,46.6c8.5,1.9,24.3,0.8,32.3-2.1
		c19-7.1,33.3-21.7,39.6-40.2c2.4-7.2,2.6-9.2,2.7-23.5c0-15.2-0.1-15.8-3.3-25.1c-9.3-27.1-28.8-45.7-56.5-54.2
		c-7.9-2.3-10-2.6-25.2-2.6c-14.9,0-17.6,0.3-26.2,2.6c-30.3,8.1-56.5,29.2-69.3,55.7c-8,16.5-11.4,31.8-11.4,52
		c0,15.8,2,27.7,6.8,42.6c4.5,13.6,8.6,21.9,16.6,33.9c22.4,33.4,59.1,54.6,101.9,58.7
		C22379.3,39599.8,22384.1,39599.8,22396,39598.7z M22701.6,39596.8c43.4-8.6,77.9-35,96.9-73.7c10.3-21,13.5-35.5,13.6-59.1
		c0-12-0.5-18.3-1.9-24.4c-7.5-34.8-28.5-61.8-59.3-76.6c-30.5-14.6-62.9-14.4-89.8,0.7c-9.4,5.3-24.6,20.1-29.8,29
		c-14.1,24.4-16.1,52-5.4,73.4c8.7,17.2,24,29.9,41.5,34.6c7.1,1.9,19.9,2.1,27,0.5c8.5-2,18.8-7.4,25.2-13.3
		c10.2-9.4,14.4-20.8,13.6-36.9c-0.7-15.8-7.1-25.5-21.1-32.1c-5.8-2.7-7.5-3.1-14.8-3.1c-7.4,0-8.9,0.3-13.7,2.9
		c-5.9,3.2-11.1,9.4-12.7,14.9c-0.5,2-1,6.5-1,10.1c0,5.1,0.5,7.1,2.2,9.8c2.7,4.1,9.1,7.3,17.1,8.6c5.4,0.9,6.8,1.7,12,6.1l5.9,5.2
		l-5.2,4.7c-8,7.2-9.7,7.9-18.8,7.4c-9.6-0.6-15.9-3.4-23.8-10.8c-9.2-8.8-13.9-19.6-13.9-32.3c0-32,29-55.7,61.3-50
		c24.5,4.3,44.6,23.1,49.6,46.3c5.4,25.6-4.7,54.6-24.4,70.6c-30,24.2-73.3,22.4-106.9-4.6l-7.4-6l-14.5,35.5
		c-7.9,19.5-14.5,36.1-14.5,36.8c0,1.6,13,10.3,22.3,14.8c13.6,6.6,30.2,11.2,49,13.6
		C22667.8,39600,22692.3,39598.6,22701.6,39596.8z M22495.8,39546.7c8.8-9.3,12.4-16.4,12.8-25.6c0.4-7.5-0.3-10.7-7-30.3
		c-5.8-16.9-7.7-28.6-7.7-46.9c-0.1-21.8,3.1-38.6,11.6-61.5c2.4-6.4,4.6-13.5,4.9-15.6c0.8-5.6-1-11.1-5.1-15.9c-2.9-3.4-3.8-4-5-3
		c-0.8,0.7-5,6.5-9.3,13c-30.5,45.4-39.1,96.4-24.7,146.3c4.4,15.2,19.2,46.7,22.1,46.7
		C22488.8,39553.8,22492.1,39550.6,22495.8,39546.7z M22570.8,39546.8c34.3-55.1,31.5-128.6-7-185.4c-3.9-5.7-7.9-11.3-9.1-12.7
		l-2.1-2.4l-2.9,3.4c-7.1,8.4-7.4,14.8-1.3,31.4c9.4,25.4,12.8,44.9,11.9,68.5c-0.7,18.4-2.9,29.6-9.7,47.5
		c-4.6,12-5.1,14.1-5.1,21.6c-0.1,7.5,0.2,9,3,14.7c2.6,5.4,15.3,20.5,17.2,20.5C22566.1,39553.8,22568.3,39550.6,22570.8,39546.8z
		 M22530.6,39475c5.6-22.4,5.6-42.1,0.3-63.2c-3.5-13.7-3.8-13.9-6.3-4.9c-6.8,25.5-6.8,48.5-0.1,71.5c1.2,3.8,2.4,7,2.8,7
		S22529.3,39480.7,22530.6,39475z M22467.2,39353.9c8.9-16.2,16.2-29.9,16.2-30.4c0-0.8-40.8-18.1-44.6-18.9
		c-1.4-0.3-21,41.8-20.6,43.9c0.2,0.7,7,9.4,15.3,19.3c11.9,14.4,15.3,17.9,16.2,16.9
		C22450.4,39383.9,22458.2,39370.1,22467.2,39353.9z M22621.7,39366.9l15.3-18.3l-10-22.3c-5.6-12.2-10.2-22.3-10.3-22.5
		c-0.5-0.6-45.9,19.3-45.7,20.1c0.5,2.1,33.9,61.7,34.5,61.5C22605.9,39385.4,22613.2,39377.1,22621.7,39366.9z M22640.5,39281.9
		c1.5-0.8,4.4-3.2,6.5-5.4l3.8-4l-5.1-5.2l-5.1-5.1l-112.4-0.3c-110-0.2-112.5-0.2-115.5,1.7c-1.7,1.1-4.6,3.5-6.3,5.4l-3.4,3.5
		l3.8,3.9c7.1,7.3-2.6,6.8,120.4,6.8C22620.9,39283.2,22638.3,39283,22640.5,39281.9z M22561.2,38871.3
		c1.4-560.1,1.2-858.5-0.5-863.1c-2.1-5.8-7.2-10.9-13.1-13c-6.2-2.1-24.3-2.4-30.8-0.5c-5.7,1.7-11.3,7-13.6,12.7
		c-1.7,4.4-1.8,14.6-2.4,219.5c-0.4,118.2-0.9,228.9-1.3,246.1c-0.9,52.8-5.1,759.1-4.5,763.6c0.1,0.4,14.7,0.7,32.6,0.7h32.6
		L22561.2,38871.3z M22475.6,38175.1v-129.4h-57.2c-51.8,0-57.2,0.2-56.7,1.6c0.3,0.9,0.6,9.3,0.6,18.8v17.3h17.3
		c19.5,0,22.8,0.7,28.7,6.1c4.5,4,6.7,9.7,9.7,23.7c2.9,14.3,3.1,14.6,7.5,14.6c6.1,0,16.1,2,20.6,3.9c3.3,1.5,4.6,2.8,6.3,6.5
		c2.1,4.5,2.1,5.8,2.1,35.5c0,16.9-0.4,32.4-0.8,34.4c-1.8,8.1-7.6,11.5-23.1,13.5c-4.5,0.5-8.4,1.1-8.5,1.3
		c-0.2,0.2-2.2,7.1-4.3,15.3c-5,18.9-7.1,22.8-14.6,26.3c-5.2,2.4-6.4,2.5-23.2,2.8l-17.9,0.4v18.5v18.5h56.7h56.7V38175.1z"/>
	<path fill="#946600" d="M21906,38970.9l-48.6-14.4v-11.2v-11.3l18.9-2.2c10.3-1.2,22.4-2.6,26.9-3.2l8-1.1l-0.1-162.7
		c-0.1-89.5-0.5-177.5-0.8-195.4l-0.6-32.7l-25.9-4.6c-14.3-2.5-26-4.6-26.1-4.7c-0.2,0-0.3-5.1-0.3-11.2v-11.2h79.6h79.6v11.2
		c0,6.2-0.1,11.2-0.2,11.2c-0.2,0.1-11.9,2.1-26.2,4.7l-25.9,4.6l-0.6,36.1c-0.3,19.9-0.7,99.6-0.8,177.3
		c-0.1,123.4,0.4,173.7,2.2,219l0.5,11.5l-4.2,2.4c-2.2,1.4-4.8,2.4-5.6,2.3C21955.1,38985.2,21932.7,38978.8,21906,38970.9z"/>
	<path fill="#946600" d="M22279.6,38970.9l-48.2-14.3v-11.3v-11.3l23.7-2.7c13-1.5,25.5-2.9,27.8-3.2l4.1-0.6v-74.2v-74.3l-8.1,8.3
		c-21,21.2-39.7,30.6-66.9,33.3c-22.2,2.3-49.4-2.7-69.6-12.9c-17.3-8.8-35.8-24.9-47.7-41.5c-7.2-10.4-17.4-30.6-21.4-43
		c-6.6-20-9.9-42.1-10-66.4c0-52.3,15.1-94.8,44.3-124.1c26.5-26.6,59.8-38.5,98.8-35.4c19.1,1.5,34.4,6.6,49.2,16.5
		c8.7,5.9,22.4,18.7,27.6,26c1.7,2.3,3.1,4.1,3.2,3.9c0.1-0.1,1.3-10.3,2.4-22.5l2.2-22.2h4.4c2.4,0,24.3,1.4,48.4,2.9
		c24.2,1.6,44.5,2.9,45.2,2.9c0.9,0,1.2,2.9,1.2,11.1v11.1l-2.6,0.6c-1.6,0.3-12.4,2.1-24.2,4c-11.8,1.9-22.8,3.7-24.2,4l-2.7,0.6
		l0.5,204.2c0.4,112.4,0.9,212.4,1.1,222.4l0.6,18.1l-3.9,2.2c-2.1,1.2-4.7,2.1-5.7,2.1
		C22328.4,38985.1,22306,38978.7,22279.6,38970.9z M22230,38783c14.4-3.7,31.1-12.9,47.7-26.2l7.5-6.2v-89.7v-89.7l-6.4-6.9
		c-13.5-14.5-29.4-25.1-44.3-29.4c-9.4-2.7-29.1-3.7-39.9-2c-32.5,5.2-56.6,27.9-68,64.2c-12.3,39.3-10.7,94.9,3.6,130.8
		c13.1,32.5,37.2,52.7,68.2,57C22206.9,38786.3,22220.6,38785.4,22230,38783z"/>
	<path fill="#946600" d="M21594.1,38949.1c-81-8.3-148-67.4-171.8-151.5c-7.3-25.8-9.9-45.4-9.9-76c0.1-25.2,1.1-36,5.5-58.1
		c17.1-85.7,76-148.3,154.8-164.5c40.7-8.3,82-2.9,119.4,15.5c40.5,20.1,70.6,50.8,91.6,93.3c21,42.8,29,92,23.7,146.5
		c-5.3,54.3-25.6,101.3-58.9,136c-25.8,26.9-54.8,44.1-89,53.1C21638.9,38948.8,21613,38951,21594.1,38949.1z M21634.1,38915.5
		c56.8-11.8,94.2-66.2,104.7-152.9c2.4-19.6,2.4-60.5,0-80.1c-9.8-80.4-42.9-133.7-92.9-149.7c-13.6-4.4-18.6-5.1-36.1-5
		c-14.6,0.1-17.8,0.4-26,2.5c-23.4,6.3-41.7,17.8-56.9,35.9c-30.2,35.8-46.5,90.6-46.5,156.3c0,36.5,4.6,67.3,14.4,96.7
		c19,57.4,53.8,90.9,101.2,97.7C21604.5,38918.2,21625,38917.3,21634.1,38915.5z"/>
	<path fill="#946600" d="M23030.4,38881.7c-71.6-6.6-129.7-56.4-151.5-129.3c-16.8-56.4-10-130.3,16.3-175.7
		c11.3-19.7,27.9-38.4,44.8-50.3c47.8-33.7,123.3-38.9,176.8-12.1c14.5,7.3,25.4,15.3,38.7,28.6c8.7,8.6,14.3,15.3,19.3,22.9
		c8,12.1,12.1,19.7,11.3,21.1c-0.4,0.6-4.1,3.6-8.4,6.9l-7.8,6l-13.4-13.1c-14.9-14.6-23.6-21.2-37.3-28.1
		c-18.1-9.1-34.7-12.8-57.5-12.8c-16,0-24.6,1.1-38.2,4.6c-30.3,8-55.1,28.4-70,57.6c-10.6,20.7-16.1,43.2-18.4,75.9l-0.6,8.5h124
		c120.1,0,124,0.1,124.6,1.9c4.1,12.9,5.7,48.2,3,66.5c-6.4,44.1-26.1,76.7-59,98.4
		C23100.8,38876.5,23064.7,38884.9,23030.4,38881.7z M23063.6,38845.2c34.9-9.1,61.3-41.1,63.2-76.4c1.3-22.7-5.2-34.7-22-41.2
		l-6.5-2.5l-80.8-0.3l-80.9-0.3v2.2c0,4.6,3.1,21.2,5.9,31.6c11.8,44.5,37.4,74.5,73.3,85.8
		C23029.6,38848.5,23049.3,38849,23063.6,38845.2z"/>
	<path fill="#946600" d="M23221.9,38858.9v-13.1l3.2-0.5c1.7-0.4,11-1.8,20.7-3.2c9.7-1.4,18.1-3,18.7-3.7
		c0.7-0.6,32.4-79.8,70.6-176l69.5-175l-4.5-12.4c-15.6-43.2-36.5-77.6-62.3-102.9l-7.4-7.2l-7.4,6.9
		c-13.2,12.6-24.1,19.6-36.2,23.2c-7.1,2.1-24.8,2.4-32.6,0.5c-16.9-4.2-29.5-14.3-33.8-26.8c-3.2-9.7,2.1-24.1,12.9-34.5
		c7.3-7,20.3-14,32.1-17.2c11.4-3,35.7-3,46.9,0c36.7,10,67.5,43.6,99,108.1c17.2,35.2,17,34.5,95.4,240.7
		c35.6,93.7,65,170.4,65.2,170.7c0.2,0.3,8.5,2.1,18.4,4.3c9.9,2.1,18.9,4,20.1,4.3c2.1,0.5,2.1,0.9,2.1,13.7v13.2h-75.2h-75.2
		v-13.1v-13.1l3.2-0.5c1.7-0.3,16.3-2.3,32.4-4.6c16.1-2.2,30.1-4.3,31-4.7c1.5-0.6-4.3-17.1-44.2-127.2
		c-25.2-69.5-46.5-128.6-47.4-131.4c-0.9-2.6-2-5.3-2.3-5.7c-0.4-0.5-2,2.6-3.5,6.8c-1.5,4.2-23.4,63.9-48.8,132.6
		c-25.3,68.8-46,125.1-45.8,125.3c0.3,0.3,64.6,8,67.2,8c1.5,0,1.7,1.3,1.7,13.7v13.7h-91.8h-91.8V38858.9z"/>
</g>
</svg>
