<?xml version="1.0" encoding="utf-8"?>
<!-- Generator: Adobe Illustrator 18.1.1, SVG Export Plug-In . SVG Version: 6.00 Build 0)  -->
<svg version="1.1" id="Layer_1" xmlns="http://www.w3.org/2000/svg" xmlns:xlink="http://www.w3.org/1999/xlink" x="0px" y="0px"
	 viewBox="0 0 300 300" enable-background="new 0 0 300 300" xml:space="preserve">
<g>
	<path fill="none" stroke="#4E4744" stroke-width="2" stroke-miterlimit="10" d="M105.8,235c0,0,15.8-1.5,21.6-34.1
		c5.8-32.6,32.1-22.9,32.1-22.9l23.4,24.1C182.8,202.2,172,256.6,105.8,235z"/>
	<path fill="none" stroke="#4E4744" stroke-width="2" stroke-miterlimit="10" d="M159.4,178.1c0,0,97.9-105.7,128.1-109.4
		c0,0-35.5,69.3-104.7,133.5"/>
	<circle fill="none" stroke="#4E4744" stroke-width="2" stroke-miterlimit="10" cx="180.9" cy="115.9" r="17"/>
	<circle fill="none" stroke="#4E4744" stroke-width="2" stroke-miterlimit="10" cx="130.2" cy="79.7" r="17"/>
	<circle fill="none" stroke="#4E4744" stroke-width="2" stroke-miterlimit="10" cx="70.4" cy="96.7" r="17"/>
	<circle fill="none" stroke="#4E4744" stroke-width="2" stroke-miterlimit="10" cx="77.3" cy="208.4" r="17"/>
	<path fill="none" stroke="#4E4744" stroke-width="2" stroke-miterlimit="10" d="M233.9,147.5c0,0.8,0,1.7,0,2.5
		c0,66.3-53.7,120.1-120.1,120.1c-38.1,0-72-17.7-94-45.3l0,0.1c-4.6-5.2-7.4-12-7.4-19.5c0-14.9,11.1-27.2,25.4-29.1
		c14,0,25.4-11.4,25.4-25.4S52,125.3,37.9,125.3c-14.3-2-25.4-14.1-25.4-28.8c0-7.7,2.1-15.6,7-20.8"/>
	<path fill="none" stroke="#4E4744" stroke-width="2" stroke-miterlimit="10" d="M19.5,75.9c22-28,56.1-45.9,94.4-45.9
		c52.5,0,97.2,33.7,113.5,80.7"/>
</g>
</svg>
