<svg width="40" height="40" viewBox="0 0 40 40" fill="none" xmlns="http://www.w3.org/2000/svg">
<g clip-path="url(#clip0_25_453)">
<path d="M30.0982 39.9973H9.81472C4.39455 39.9973 0 35.5939 0 30.1615V9.83738C0 4.40635 4.39455 0.00299072 9.81472 0.00299072H30.0982C35.5184 0.00299072 39.9129 4.40635 39.9129 9.83738V30.1615C39.9143 35.5939 35.5197 39.9973 30.0982 39.9973Z" fill="black"/>
<path d="M16.5857 17.0241V15.8151C16.1669 15.7487 15.744 15.7125 15.3201 15.7066C11.2162 15.6983 7.58403 18.3623 6.35137 22.2834C5.1187 26.2045 6.57349 30.4746 9.94105 32.8226C6.40758 29.0334 6.60914 23.0913 10.3908 19.5507C12.0759 17.9746 14.2811 17.0752 16.5857 17.0241Z" fill="#25F4EE"/>
<path d="M16.8134 30.7137C19.1074 30.711 20.9927 28.9002 21.0942 26.603V6.10849H24.8306C24.7541 5.6805 24.7179 5.24628 24.7222 4.81152H19.612V25.2854C19.5269 27.5936 17.6361 29.4222 15.3312 29.4264C14.6429 29.4209 13.9642 29.2505 13.354 28.9318C13.7497 29.481 14.2693 29.9287 14.8705 30.2383C15.4717 30.548 16.1374 30.7109 16.8134 30.7137ZM31.8084 13.0618V11.9228C30.4331 11.9228 29.088 11.5162 27.9431 10.7537C28.9467 11.9238 30.3037 12.7341 31.8084 13.0618Z" fill="#25F4EE"/>
<path d="M27.944 10.755C26.8153 9.46769 26.1933 7.81243 26.1944 6.09888H24.8301C25.0057 7.0464 25.3725 7.94804 25.9079 8.74864C26.4433 9.54924 27.1361 10.232 27.944 10.755ZM15.3197 20.8285C12.9504 20.8408 11.039 22.7753 11.0513 25.1494C11.0552 25.9287 11.2705 26.6924 11.6741 27.3586C12.0776 28.0248 12.6544 28.5686 13.3425 28.9318C11.9563 27.0138 12.3841 24.3319 14.2982 22.9415C15.0296 22.4108 15.9099 22.1256 16.8129 22.1268C17.2421 22.1323 17.6685 22.1996 18.0785 22.326V17.1148C17.6603 17.0516 17.2366 17.0187 16.8129 17.0159H16.5853V20.9782C16.1726 20.8656 15.7462 20.8161 15.3197 20.8285Z" fill="#FE2C55"/>
<path d="M31.8082 13.0618V17.0241C29.2625 17.0192 26.7828 16.2117 24.7207 14.7159V25.126C24.7097 30.3207 20.5044 34.5262 15.3201 34.5262C13.3947 34.5299 11.5157 33.9346 9.94238 32.8226C13.4704 36.6242 19.4061 36.8413 23.2014 33.3062C24.1456 32.4268 24.8987 31.3619 25.4137 30.1778C25.9287 28.9937 26.1946 27.716 26.1947 26.4243V16.0431C28.264 17.5283 30.7464 18.3251 33.2918 18.3211V13.2211C32.7927 13.2184 32.2963 13.1662 31.8082 13.0618Z" fill="#FE2C55"/>
<path d="M24.7206 25.1274V14.7174C26.7893 16.2037 29.2721 17.0006 31.8177 16.9953V13.033C30.3139 12.7144 28.954 11.915 27.9428 10.755C27.1354 10.2315 26.4429 9.54869 25.9075 8.74817C25.3722 7.94764 25.0052 7.04621 24.829 6.09888H21.0926V26.603C20.9952 28.9757 18.9988 30.8195 16.6308 30.7233C15.983 30.697 15.3496 30.5238 14.7782 30.2168C14.2068 29.9099 13.7122 29.4771 13.3318 28.951C11.2353 27.845 10.4305 25.2456 11.5342 23.1449C11.8965 22.4551 12.4391 21.8771 13.1041 21.4727C13.769 21.0683 14.5312 20.8527 15.309 20.8491C15.7382 20.8532 16.1646 20.9192 16.5746 21.0469V17.0255C11.3999 17.1135 7.27544 21.4481 7.36319 26.6332C7.40289 28.9813 8.31917 31.2293 9.93136 32.9339C11.5201 34.0093 13.4017 34.5664 15.3186 34.529C20.5043 34.5277 24.7097 30.3221 24.7206 25.1274Z" fill="white"/>
</g>
<defs>
<clipPath id="clip0_25_453">
<rect width="40" height="40" fill="white"/>
</clipPath>
</defs>
</svg>
